<svg xmlns="http://www.w3.org/2000/svg" viewBox="0 0 64 64" aria-hidden="true">
  <path fill="#4285F4" d="M58 32.7c0-1.9-.2-3.4-.5-5H32v9.5h14.6c-.3 2.4-1.9 6-5.4 8.4l-.1.8 7.8 6 .5.1C54 48.2 58 41.2 58 32.7Z"/>
  <path fill="#34A853" d="M32 59c7.3 0 13.4-2.4 17.9-6.5l-8.5-6.6c-2.3 1.6-5.3 2.8-9.4 2.8-7.1 0-13.2-4.7-15.3-11.3l-.8.1-8.1 6.2-.3.8C12.1 53.6 21.3 59 32 59Z"/>
  <path fill="#FBBC05" d="M16.7 37.4c-.5-1.6-.8-3.3-.8-5.1s.3-3.5.8-5.1l-.1-.9-8.3-6.3-.7.3C5.9 23.7 5 27.7 5 32.3s.9 8.6 2.6 12.1l9.1-7Z"/>
  <path fill="#EA4335" d="M32 15.8c5.2 0 8.7 2.2 10.7 4.1l7.8-7.6C45.4 7.5 39.3 5 32 5 21.3 5 12.1 10.4 7.6 19.5l9.1 7c2.1-6.6 8.2-11.2 15.3-11.2Z"/>
</svg>