<svg xmlns="http://www.w3.org/2000/svg" viewBox="0 0 64 64" aria-hidden="true">
  <g fill="#D81E06" transform="translate(32 32)">
    <path d="M0-24c3 8 3.8 14.4 3.2 22.8C2.3 7-2.3 7-3.2-1.2-3.8-9.6-3-16 0-24Z"/>
    <path d="M9.5-22c1.4 8.2.6 14.8-2 22.8-2.2 6.8-6.1 4.4-5.4-3.6.6-7.3 3.1-13.9 7.4-19.2Z"/>
    <path d="M18-17.5c-.6 8-3.2 14.5-7.8 21.5-3.9 5.9-7.1 2.3-4.3-5.1 2.6-6.7 6.8-12 12.1-16.4Z"/>
    <path d="M24-8.5c-2.6 7.1-7 12.6-13.6 17.4-5.6 4-7.4-.4-2.8-6.1 4.2-5.1 9.8-8.9 16.4-11.3Z"/>
    <path d="M-9.5-22c-1.4 8.2-.6 14.8 2 22.8 2.2 6.8 6.1 4.4 5.4-3.6-.6-7.3-3.1-13.9-7.4-19.2Z"/>
    <path d="M-18-17.5c.6 8 3.2 14.5 7.8 21.5 3.9 5.9 7.1 2.3 4.3-5.1-2.6-6.7-6.8-12-12.1-16.4Z"/>
    <path d="M-24-8.5c2.6 7.1 7 12.6 13.6 17.4 5.6 4 7.4-.4 2.8-6.1-4.2-5.1-9.8-8.9-16.4-11.3Z"/>
  </g>
</svg>